<?xml version="1.0" encoding="UTF-8"?>
<!-- Generator: visioncortex VTracer 0.6.3 -->
<svg version="1.1" xmlns="http://www.w3.org/2000/svg" width="1280" height="1280">
<path d="M0 0 C422.4 0 844.8 0 1280 0 C1280 422.4 1280 844.8 1280 1280 C857.6 1280 435.2 1280 0 1280 C0 857.6 0 435.2 0 0 Z " fill="#F9FCFE" transform="translate(0,0)"/>
<path d="M0 0 C1.36 0 2.72 0 4.07 0 C7.63 0.01 11.18 0.02 14.73 0.03 C18.36 0.04 22 0.04 25.63 0.05 C32.74 0.06 39.86 0.08 46.97 0.1 C47.91 3.71 48.03 5.9 46.73 9.4 C46.43 10.22 46.13 11.04 45.83 11.89 C45.49 12.76 45.16 13.64 44.82 14.54 C44.31 15.93 44.31 15.93 43.79 17.34 C42.69 20.31 41.58 23.27 40.47 26.22 C39.76 28.16 39.04 30.09 38.32 32.03 C36.91 35.86 35.49 39.69 34.06 43.51 C31.76 49.65 29.5 55.79 27.24 61.94 C25.4 66.96 23.52 71.97 21.6 76.97 C20.78 79.37 20.78 79.37 20.97 83.1 C27.09 76.54 33.04 69.92 38.67 62.93 C45.44 54.59 52.49 46.48 59.48 38.34 C66.96 29.62 74.41 20.88 81.61 11.93 C82.39 10.99 83.17 10.06 83.97 9.1 C84.43 8.37 84.88 7.64 85.35 6.88 C88.29 2.71 90.5 0.42 95.59 -0.7 C100.11 -1.06 104.63 -0.92 109.16 -0.78 C110.83 -0.76 112.5 -0.75 114.17 -0.74 C118.54 -0.71 122.92 -0.62 127.29 -0.52 C131.76 -0.43 136.23 -0.39 140.7 -0.34 C149.46 -0.25 158.22 -0.09 166.97 0.1 C166.97 1.09 166.97 2.08 166.97 3.1 C165.32 4.45 163.65 5.78 161.97 7.1 C160.2 9.22 158.51 11.33 156.85 13.54 C153.09 18.43 149.24 23.22 145.22 27.91 C141.64 32.1 138.19 36.35 134.84 40.73 C132.49 43.71 130.01 46.59 127.54 49.47 C123.35 54.35 119.49 59.37 115.82 64.66 C113.75 67.4 111.4 69.67 108.97 72.1 C106.83 74.59 104.78 77.16 102.72 79.72 C101.56 81.16 100.4 82.61 99.23 84.05 C98.39 85.09 98.39 85.09 97.53 86.16 C88.21 97.73 78.7 109.16 69.24 120.62 C55.37 136.02 55.37 136.02 43.97 153.1 C43.31 153.1 42.65 153.1 41.97 153.1 C42.66 166.63 44 180.08 45.37 193.55 C45.61 195.91 45.85 198.27 46.09 200.62 C46.58 205.55 47.08 210.47 47.58 215.39 C48.22 221.62 48.85 227.85 49.48 234.07 C49.97 238.94 50.46 243.81 50.95 248.67 C51.19 250.96 51.42 253.25 51.65 255.55 C52.3 261.95 52.96 268.35 53.63 274.75 C53.87 277.11 54.11 279.47 54.35 281.83 C54.73 285.61 55.12 289.38 55.51 293.16 C55.63 294.33 55.75 295.51 55.87 296.73 C55.98 297.81 56.1 298.89 56.21 300 C56.31 300.97 56.41 301.93 56.51 302.92 C56.66 303.64 56.82 304.36 56.97 305.1 C57.63 305.43 58.29 305.76 58.97 306.1 C59.1 305.23 59.22 304.36 59.35 303.46 C59.95 300.22 60.83 297.4 61.98 294.32 C62.4 293.19 62.83 292.06 63.26 290.89 C63.72 289.66 64.18 288.43 64.66 287.16 C65.67 284.43 66.68 281.7 67.7 278.97 C67.96 278.25 68.23 277.54 68.5 276.8 C71.6 268.44 74.6 260.05 77.6 251.66 C81.55 240.6 85.53 229.55 89.54 218.51 C90.31 216.37 91.09 214.24 91.87 212.1 C93 208.97 94.14 205.84 95.28 202.71 C96.34 199.8 97.4 196.89 98.45 193.98 C98.92 192.71 98.92 192.71 99.4 191.4 C101.2 186.42 102.81 181.43 104.26 176.33 C104.96 174.14 105.81 172.12 106.79 170.04 C111.08 160.74 114.09 150.81 117.28 141.09 C119.54 134.21 121.97 127.51 124.83 120.86 C126.35 117.17 127.58 113.42 128.81 109.64 C130.31 105.06 131.89 100.52 133.47 95.97 C133.76 95.15 134.04 94.33 134.34 93.48 C136.08 88.47 137.97 83.55 139.96 78.63 C141.69 74.3 143.26 69.92 144.85 65.54 C145.19 64.58 145.54 63.62 145.9 62.63 C148.22 56.22 150.5 49.8 152.75 43.37 C154.93 37.17 157.21 31.02 159.5 24.86 C161.49 19.5 163.31 14.12 164.95 8.64 C165.46 7.38 165.46 7.38 165.97 6.1 C166.37 5.07 166.77 4.04 167.18 2.98 C168.84 0.57 169.74 0.14 172.65 -0.45 C176.36 -0.65 180.03 -0.64 183.74 -0.58 C185.17 -0.58 186.6 -0.58 188.02 -0.59 C191.9 -0.59 195.78 -0.55 199.66 -0.51 C203.71 -0.47 207.76 -0.47 211.82 -0.46 C219.49 -0.44 227.17 -0.39 234.84 -0.33 C243.58 -0.27 252.32 -0.23 261.05 -0.2 C279.03 -0.14 297 -0.04 314.97 0.1 C315.87 4.04 315.93 6.2 314.54 10.02 C314.04 11.45 314.04 11.45 313.52 12.91 C312.96 14.43 312.96 14.43 312.39 15.98 C312.01 17.03 311.63 18.08 311.25 19.17 C310.04 22.52 308.82 25.87 307.6 29.22 C306.78 31.49 305.97 33.75 305.15 36.02 C303.36 41 301.56 45.97 299.75 50.95 C299.13 52.66 298.55 54.38 297.97 56.1 C296.54 56.11 296.54 56.11 295.07 56.12 C286.05 56.17 277.03 56.25 268.01 56.33 C263.37 56.38 258.73 56.42 254.1 56.44 C249.62 56.47 245.15 56.51 240.68 56.56 C238.97 56.58 237.26 56.59 235.55 56.6 C233.16 56.6 230.77 56.63 228.38 56.67 C227.32 56.66 227.32 56.66 226.23 56.66 C223.39 56.72 221.45 56.76 219.09 58.44 C217.35 61.02 216.44 63.74 215.41 66.66 C215.17 67.32 214.94 67.97 214.69 68.65 C213.92 70.79 213.17 72.95 212.41 75.1 C211.61 77.34 210.81 79.57 210.01 81.81 C209.47 83.33 208.93 84.85 208.38 86.37 C206.63 91.3 204.83 96.21 203 101.11 C202.54 102.34 202.08 103.56 201.61 104.82 C200.74 107.13 199.88 109.43 199.01 111.73 C198.62 112.76 198.23 113.8 197.84 114.86 C197.5 115.76 197.16 116.65 196.81 117.58 C195.98 120.07 195.47 122.52 194.97 125.1 C195.76 125.09 196.54 125.09 197.35 125.08 C204.74 125.04 212.12 125.01 219.51 124.99 C223.31 124.98 227.11 124.97 230.91 124.95 C234.57 124.93 238.23 124.91 241.9 124.91 C243.29 124.9 244.69 124.9 246.09 124.89 C248.05 124.87 250.01 124.87 251.96 124.87 C253.63 124.86 253.63 124.86 255.34 124.86 C257.97 125.1 257.97 125.1 259.97 127.1 C259.74 127.71 259.5 128.33 259.26 128.97 C254.7 140.92 250.24 152.87 246.36 165.06 C244.55 170.66 242.39 175.65 239.97 181.1 C206.81 181.59 206.81 181.59 172.97 182.1 C168.07 196.53 168.07 196.53 163.16 210.96 C162.53 212.83 161.89 214.7 161.25 216.57 C160.91 217.58 160.56 218.6 160.21 219.65 C158.39 225 156.54 230.35 154.66 235.68 C154.1 237.27 154.1 237.27 153.53 238.88 C152.82 240.9 152.1 242.91 151.38 244.92 C150.91 246.27 150.91 246.27 150.42 247.65 C150 248.83 150 248.83 149.57 250.04 C148.83 252.22 148.83 252.22 148.97 255.1 C188.08 255.59 188.08 255.59 227.97 256.1 C229.1 261.72 229.1 261.72 227.5 265.86 C227.18 266.73 226.86 267.6 226.52 268.5 C226.18 269.4 225.83 270.3 225.47 271.22 C224.79 273.01 224.11 274.81 223.44 276.61 C223.14 277.4 222.83 278.19 222.52 279 C221.73 281.27 221.73 281.27 222.97 284.1 C223.96 283.84 224.95 283.58 225.96 283.31 C238.69 279.94 251.43 276.58 264.16 273.22 C265.19 272.95 266.22 272.68 267.27 272.4 C295.37 264.99 323.48 257.6 351.6 250.29 C371.08 245.21 390.56 240.1 410 234.86 C421.29 231.81 432.6 228.81 443.91 225.85 C444.76 225.62 445.61 225.4 446.49 225.17 C457.45 222.3 468.43 219.46 479.41 216.63 C484.22 215.39 489.03 214.15 493.85 212.91 C495.05 212.6 496.26 212.29 497.5 211.97 C522.18 205.6 546.8 199.05 571.42 192.46 C572.54 192.16 573.67 191.86 574.82 191.55 C579.48 190.3 584.14 189.06 588.79 187.79 C589.48 187.6 590.18 187.41 590.89 187.22 C592.62 186.75 594.34 186.28 596.07 185.81 C604.33 183.78 604.33 183.78 606.97 185.1 C607.3 184.44 607.63 183.78 607.97 183.1 C609.95 183.1 611.93 183.1 613.97 183.1 C610.98 185.09 608.19 186.34 604.86 187.71 C604.26 187.95 603.66 188.2 603.05 188.46 C601.11 189.26 599.17 190.05 597.22 190.85 C595.89 191.4 594.56 191.95 593.22 192.49 C586.66 195.2 580.08 197.87 573.47 200.47 C569.17 202.18 564.97 204 560.79 205.97 C555.52 208.44 550.19 210.65 544.79 212.79 C537.18 215.79 529.62 218.9 522.1 222.1 C521.03 222.55 519.96 223.01 518.85 223.48 C516.52 224.47 514.18 225.46 511.84 226.46 C504.43 229.6 497.02 232.72 489.6 235.85 C488.8 236.19 487.99 236.52 487.17 236.87 C474.44 242.23 461.7 247.55 448.95 252.85 C438.22 257.32 427.51 261.83 416.82 266.38 C409.56 269.46 402.26 272.43 394.9 275.29 C390.54 277 386.3 278.86 382.06 280.86 C373.63 284.79 364.99 288.21 356.35 291.66 C343.05 296.97 343.05 296.97 329.96 302.75 C323.55 305.64 317.01 308.26 310.51 310.94 C296.74 316.61 282.99 322.33 269.29 328.16 C267.95 328.73 266.62 329.3 265.28 329.86 C263.26 330.72 261.24 331.58 259.22 332.44 C237.53 341.67 215.8 350.77 194.04 359.79 C181.8 364.85 169.56 369.92 157.35 375.04 C156.72 375.3 156.09 375.56 155.44 375.83 C146.09 379.75 136.78 383.78 127.49 387.85 C121.82 390.32 116.12 392.62 110.33 394.79 C105.15 396.81 100.06 399.04 94.95 401.24 C86.87 404.72 78.77 408.14 70.66 411.54 C70 411.81 69.33 412.09 68.65 412.38 C56.1 417.64 43.54 422.87 30.97 428.1 C26.87 429.81 22.76 431.51 18.66 433.22 C17.65 433.64 16.64 434.06 15.6 434.5 C9.03 437.24 2.47 440 -4.09 442.77 C-9.5 445.06 -14.94 447.3 -20.38 449.53 C-21.13 449.84 -21.87 450.15 -22.64 450.46 C-26.41 452.01 -30.17 453.55 -33.94 455.09 C-39.86 457.51 -45.76 459.94 -51.57 462.62 C-59.24 466.17 -67.13 469.23 -74.98 472.37 C-83.12 475.62 -91.15 479.01 -99.09 482.73 C-103.26 484.67 -107.48 486.46 -111.71 488.22 C-112.48 488.54 -113.24 488.86 -114.03 489.2 C-117.97 490.85 -121.93 492.46 -125.9 494.04 C-131.43 496.25 -136.91 498.55 -142.4 500.85 C-150.9 504.4 -159.41 507.89 -167.99 511.23 C-172.39 512.96 -176.68 514.85 -180.95 516.86 C-190.13 521.14 -199.55 524.81 -208.95 528.57 C-217.68 532.06 -226.31 535.62 -234.82 539.63 C-240.99 542.46 -247.3 544.97 -253.59 547.54 C-256.6 548.77 -259.61 550 -262.62 551.23 C-263.4 551.55 -264.17 551.87 -264.96 552.19 C-270.43 554.43 -275.89 556.7 -281.34 558.99 C-304.17 568.57 -326.99 578.01 -350.57 585.62 C-353.41 586.55 -356.21 587.52 -359 588.59 C-398.13 603.47 -441.73 611.32 -483.46 611.35 C-484.4 611.35 -485.34 611.35 -486.3 611.35 C-499.75 611.33 -512.85 611.06 -526.03 608.1 C-527.21 607.85 -527.21 607.85 -528.41 607.59 C-553.62 602.15 -576.3 589.77 -595.03 572.1 C-595.78 571.42 -596.53 570.75 -597.3 570.05 C-604.2 563.6 -609.08 556.07 -614.03 548.1 C-614.9 546.74 -614.9 546.74 -615.78 545.36 C-635.5 512.31 -631.96 468.51 -623.22 432.8 C-612.36 391.56 -593.5 352 -569.03 317.1 C-568.02 315.63 -567.01 314.15 -566 312.68 C-557.39 300.19 -548.32 288.09 -539.03 276.1 C-538.24 275.08 -538.24 275.08 -537.44 274.04 C-531.95 266.9 -526.27 259.95 -520.37 253.14 C-517.33 249.63 -514.37 246.09 -511.46 242.47 C-507.36 237.42 -503.01 232.64 -498.59 227.88 C-495.93 224.99 -493.34 222.05 -490.77 219.09 C-488.71 216.74 -486.62 214.42 -484.53 212.1 C-481.84 209.12 -479.16 206.13 -476.53 203.1 C-469.42 194.94 -462.41 186.96 -454.03 180.1 C-455.44 183.92 -457.24 187.24 -459.34 190.72 C-484.79 234.37 -507.51 293.74 -496.03 345.1 C-495.8 346.12 -495.8 346.12 -495.57 347.16 C-489.83 372.17 -476.28 393.35 -455.03 408.1 C-454.49 408.51 -453.95 408.93 -453.4 409.36 C-438.27 420.93 -418.56 425.54 -400.03 428.1 C-398.08 428.37 -398.08 428.37 -396.09 428.66 C-388.81 429.43 -381.47 429.34 -374.15 429.35 C-373.36 429.35 -372.56 429.35 -371.74 429.35 C-357.01 429.33 -342.61 428.33 -328.03 426.1 C-327.02 425.95 -326.01 425.8 -324.97 425.64 C-301.99 422.11 -279.5 415.93 -257.03 410.1 C-255.87 409.8 -254.71 409.5 -253.51 409.19 C-244.78 406.92 -236.06 404.64 -227.34 402.35 C-226.16 402.04 -224.98 401.73 -223.76 401.41 C-211.44 398.17 -199.14 394.87 -186.88 391.39 C-179.51 389.31 -172.14 387.35 -164.67 385.65 C-153.38 383.07 -142.22 379.99 -131.03 377.04 C-128.48 376.36 -125.92 375.69 -123.37 375.02 C-108.79 371.17 -94.22 367.28 -79.65 363.35 C-65.95 359.65 -52.22 356.08 -38.46 352.59 C-18.49 347.51 1.43 342.28 21.36 337.05 C24 336.36 26.64 335.66 29.28 334.97 C49.19 329.75 69.1 324.49 88.97 319.1 C88.97 318.77 88.97 318.44 88.97 318.1 C87.76 318.09 86.55 318.08 85.3 318.07 C73.91 318 62.52 317.91 51.13 317.81 C45.28 317.76 39.42 317.71 33.57 317.68 C27.92 317.64 22.27 317.59 16.62 317.54 C14.47 317.52 12.31 317.51 10.15 317.49 C7.13 317.48 4.12 317.45 1.1 317.42 C0.2 317.41 -0.7 317.41 -1.62 317.41 C-7.8 317.33 -7.8 317.33 -10.03 315.1 C-10.46 313.04 -10.46 313.04 -10.73 310.41 C-10.84 309.4 -10.95 308.38 -11.06 307.34 C-11.17 306.2 -11.28 305.06 -11.39 303.88 C-11.51 302.67 -11.64 301.45 -11.77 300.19 C-13.66 281.36 -15.28 262.49 -16.94 243.63 C-17.31 239.45 -17.68 235.27 -18.05 231.1 C-18.41 227.06 -18.77 223.02 -19.13 218.99 C-19.3 217.07 -19.47 215.15 -19.64 213.23 C-19.87 210.57 -20.11 207.91 -20.34 205.26 C-20.41 204.47 -20.48 203.68 -20.55 202.87 C-20.81 199.94 -21.03 197.05 -21.03 194.1 C-24.3 201.26 -26.9 208.56 -29.34 216.04 C-33.24 227.96 -37.43 239.78 -41.65 251.6 C-47.76 268.7 -53.81 285.83 -59.77 302.98 C-60.05 303.79 -60.34 304.59 -60.62 305.42 C-61.15 306.92 -61.67 308.42 -62.19 309.92 C-63.91 314.87 -63.91 314.87 -65.03 317.1 C-87.8 317.1 -110.57 317.1 -134.03 317.1 C-135.03 315.1 -135.03 315.1 -134.06 311.98 C-133.56 310.63 -133.04 309.29 -132.53 307.95 C-132.26 307.23 -131.99 306.51 -131.71 305.77 C-131.12 304.22 -130.54 302.68 -129.95 301.13 C-128.41 297.12 -126.91 293.1 -125.39 289.07 C-125.1 288.29 -124.8 287.5 -124.49 286.69 C-122.3 280.85 -120.18 274.99 -118.15 269.1 C-115.72 262.04 -113.18 255.03 -110.58 248.03 C-108.68 242.9 -106.83 237.76 -105.03 232.6 C-102.63 225.76 -100.15 218.96 -97.63 212.17 C-95.75 207.1 -93.93 202.02 -92.15 196.91 C-89.74 189.99 -87.18 183.14 -84.59 176.29 C-81.46 168 -78.45 159.7 -75.55 151.33 C-73.59 145.67 -71.55 140.03 -69.46 134.41 C-65.58 123.93 -61.86 113.4 -58.2 102.84 C-57.89 101.94 -57.58 101.05 -57.26 100.13 C-56.67 98.41 -56.07 96.68 -55.47 94.96 C-53.84 90.25 -52 85.68 -50.03 81.1 C-49 78.38 -48.04 75.65 -47.09 72.91 C-46.7 71.8 -46.7 71.8 -46.3 70.66 C-44.79 66.34 -43.33 62.01 -41.9 57.66 C-40.76 54.19 -39.54 50.79 -38.15 47.41 C-36.41 43.14 -34.85 38.82 -33.34 34.47 C-29.44 23.27 -25.22 12.19 -21.03 1.1 C-14.05 -0.22 -7.08 -0.03 0 0 Z " fill="#000405" transform="translate(646.02734375,298.90234375)"/>
<path d="M0 0 C0.38 2.1 0.38 2.1 0.39 4.74 C0.4 5.75 0.41 6.75 0.43 7.78 C0.42 8.88 0.42 9.98 0.42 11.12 C0.43 12.28 0.43 13.43 0.44 14.63 C0.47 18.47 0.47 22.31 0.48 26.16 C0.49 28.82 0.51 31.48 0.52 34.14 C0.56 40.44 0.59 46.73 0.6 53.03 C0.64 64.31 0.7 75.6 0.76 86.88 C0.78 91.48 0.8 96.08 0.81 100.68 C0.82 103.08 0.83 105.48 0.84 107.88 C0.84 108.98 0.84 110.09 0.85 111.22 C0.85 112.22 0.86 113.22 0.86 114.26 C0.86 115.13 0.87 116 0.87 116.9 C0.87 119.06 0.87 119.06 2 121 C2.33 120.01 2.65 119.02 2.99 118 C3.43 116.67 3.87 115.33 4.31 114 C4.53 113.35 4.74 112.7 4.96 112.04 C7.2 105.28 9.74 98.64 12.35 92.02 C19.36 74.18 25.7 56.1 32 38 C35.62 27.61 39.22 17.25 43.69 7.19 C44.84 4.39 45.46 1.95 46 -1 C53.6 -1.82 61.1 -2.16 68.75 -2.12 C69.84 -2.12 70.93 -2.12 72.06 -2.12 C86.05 -2.05 100.02 -1.53 114 -1 C115.66 3.03 114.17 6.19 112.71 10.04 C112.46 10.73 112.2 11.43 111.94 12.15 C111.09 14.46 110.23 16.76 109.38 19.06 C108.78 20.68 108.19 22.29 107.6 23.9 C106.05 28.11 104.49 32.3 102.93 36.5 C102.03 38.93 101.12 41.37 100.22 43.8 C99.93 44.57 99.64 45.35 99.35 46.15 C98.77 47.69 98.2 49.23 97.63 50.78 C96.28 54.39 94.93 58.01 93.58 61.62 C90.56 69.68 87.66 77.77 84.83 85.9 C81.23 96.23 77.54 106.53 73.85 116.83 C72.63 120.23 71.42 123.63 70.2 127.03 C65.92 138.98 61.58 150.91 57.07 162.78 C54.54 169.46 52.18 176.18 49.88 182.94 C45.25 196.45 40.34 209.85 35.4 223.25 C32.31 231.66 29.25 240.09 26.28 248.55 C23.13 257.52 19.84 266.44 16.56 275.38 C15.93 277.11 15.29 278.85 14.65 280.59 C10.45 292.06 6.23 303.53 2 315 C-7.24 315.02 -16.48 315.04 -25.72 315.05 C-30.01 315.06 -34.3 315.06 -38.59 315.08 C-42.73 315.09 -46.86 315.09 -51 315.09 C-52.58 315.1 -54.16 315.1 -55.75 315.11 C-57.95 315.11 -60.16 315.11 -62.37 315.11 C-63.63 315.12 -64.89 315.12 -66.18 315.12 C-69 315 -69 315 -70 314 C-70.11 312.25 -70.15 310.5 -70.16 308.75 C-70.17 307.62 -70.18 306.48 -70.19 305.31 C-70.19 304.05 -70.2 302.79 -70.21 301.49 C-70.22 300.18 -70.23 298.86 -70.24 297.5 C-70.26 293.88 -70.28 290.26 -70.3 286.64 C-70.33 282.86 -70.35 279.08 -70.38 275.3 C-70.43 268.13 -70.47 260.97 -70.52 253.8 C-70.57 245.65 -70.62 237.49 -70.68 229.34 C-70.79 212.56 -70.9 195.78 -71 179 C-71.66 179 -72.32 179 -73 179 C-73.17 179.66 -73.34 180.32 -73.51 180.99 C-75.37 188.05 -77.63 194.89 -80.12 201.75 C-80.55 202.93 -80.98 204.11 -81.41 205.33 C-82.66 208.77 -83.9 212.21 -85.15 215.66 C-86.7 219.94 -88.25 224.23 -89.8 228.52 C-91.92 234.38 -94.04 240.23 -96.16 246.09 C-100.15 257.09 -104.11 268.1 -108.06 279.11 C-108.9 281.43 -109.73 283.75 -110.56 286.08 C-111.78 289.46 -112.99 292.85 -114.2 296.24 C-115.32 299.37 -116.44 302.49 -117.56 305.62 C-118.06 307.03 -118.06 307.03 -118.58 308.46 C-118.88 309.31 -119.19 310.17 -119.5 311.04 C-119.77 311.79 -120.04 312.53 -120.31 313.3 C-121 315 -121 315 -122 316 C-123.36 316.1 -124.73 316.13 -126.09 316.13 C-127.46 316.14 -127.46 316.14 -128.85 316.14 C-130.38 316.13 -130.38 316.13 -131.94 316.12 C-133 316.12 -134.06 316.12 -135.15 316.12 C-153.11 316.03 -171.06 315.48 -189 315 C-190.14 311.57 -189.89 311.04 -188.59 307.82 C-188.27 306.98 -187.94 306.15 -187.6 305.29 C-187.24 304.39 -186.87 303.49 -186.5 302.56 C-185.74 300.63 -184.98 298.69 -184.23 296.76 C-183.85 295.78 -183.47 294.81 -183.08 293.8 C-181.57 289.88 -180.18 285.91 -178.81 281.94 C-175.54 272.47 -172.15 263.05 -168.75 253.62 C-168.47 252.85 -168.19 252.07 -167.9 251.26 C-163.69 239.63 -159.44 228.01 -155.17 216.39 C-151.21 205.6 -147.3 194.78 -143.4 183.97 C-140.32 175.4 -137.22 166.85 -134.06 158.31 C-129.85 146.95 -125.75 135.54 -122.05 124 C-121.15 121.44 -120.18 118.93 -119.16 116.41 C-116.82 110.62 -114.72 104.76 -112.62 98.88 C-110.09 91.79 -107.55 84.72 -104.88 77.69 C-102.51 71.44 -100.29 65.15 -98.1 58.84 C-94.4 48.2 -90.54 37.61 -86.71 27.02 C-86.44 26.27 -86.17 25.53 -85.89 24.76 C-85.36 23.29 -84.83 21.82 -84.29 20.35 C-83.02 16.85 -81.76 13.34 -80.52 9.82 C-80.29 9.17 -80.06 8.51 -79.83 7.84 C-79.2 6.08 -78.59 4.31 -77.97 2.54 C-77 0 -77 0 -76 -1 C-73.75 -1.13 -71.49 -1.2 -69.23 -1.24 C-68.53 -1.25 -67.82 -1.26 -67.09 -1.28 C-64.74 -1.32 -62.39 -1.35 -60.04 -1.39 C-58.41 -1.41 -56.78 -1.44 -55.15 -1.46 C-51.74 -1.52 -48.32 -1.57 -44.9 -1.61 C-40.52 -1.67 -36.13 -1.75 -31.75 -1.82 C-28.38 -1.88 -25.02 -1.93 -21.65 -1.98 C-20.04 -2 -18.42 -2.03 -16.81 -2.06 C-14.55 -2.1 -12.29 -2.13 -10.03 -2.15 C-8.74 -2.17 -7.45 -2.19 -6.13 -2.21 C-3 -2 -3 -2 0 0 Z " fill="#000405" transform="translate(374,301)"/>
<path d="M0 0 C0.66 -0 1.32 -0.01 2 -0.02 C4.19 -0.03 6.39 -0.04 8.58 -0.04 C10.1 -0.05 11.62 -0.05 13.13 -0.06 C16.32 -0.07 19.51 -0.08 22.69 -0.08 C26.78 -0.08 30.87 -0.11 34.97 -0.14 C38.1 -0.16 41.24 -0.16 44.38 -0.16 C45.89 -0.17 47.39 -0.17 48.9 -0.19 C51.01 -0.2 53.12 -0.2 55.22 -0.2 C56.42 -0.2 57.62 -0.2 58.86 -0.21 C59.79 -0.09 60.72 0.04 61.68 0.16 C62.67 1.65 62.67 1.65 63.68 3.16 C63.16 5.51 63.16 5.51 62.06 8.36 C61.65 9.46 61.23 10.57 60.81 11.7 C60.09 13.54 60.09 13.54 59.36 15.41 C58.6 17.43 57.84 19.44 57.08 21.46 C56.53 22.93 55.97 24.41 55.41 25.88 C52.02 34.86 48.76 43.88 45.51 52.91 C44.41 55.94 43.32 58.98 42.22 62.01 C37.51 75.05 32.83 88.1 28.18 101.16 C23.09 115.42 17.98 129.68 12.84 143.92 C12.12 145.91 11.4 147.9 10.69 149.9 C7.04 160.01 3.34 170.1 -0.51 180.13 C-3.64 188.3 -6.59 196.5 -9.39 204.79 C-12.43 213.69 -15.5 222.58 -18.82 231.39 C-20.61 236.18 -22.33 241 -24.03 245.83 C-28.04 257.26 -32.21 268.63 -36.36 280.01 C-37.39 282.83 -38.42 285.65 -39.45 288.47 C-39.78 289.38 -40.11 290.28 -40.45 291.22 C-42.86 297.84 -45.22 304.48 -47.51 311.15 C-49.22 316.05 -49.22 316.05 -50.32 317.16 C-52.47 317.26 -54.62 317.28 -56.77 317.27 C-57.78 317.27 -57.78 317.27 -58.81 317.28 C-61.05 317.27 -63.28 317.27 -65.52 317.26 C-67.06 317.26 -68.61 317.26 -70.15 317.25 C-74.23 317.25 -78.3 317.24 -82.38 317.23 C-86.53 317.22 -90.69 317.22 -94.85 317.21 C-103 317.2 -111.16 317.18 -119.32 317.16 C-120.32 315.16 -120.32 315.16 -119.1 311.41 C-118.5 309.8 -117.88 308.2 -117.26 306.6 C-116.6 304.86 -115.95 303.12 -115.29 301.38 C-114.96 300.5 -114.62 299.62 -114.28 298.72 C-112.91 295.05 -111.61 291.36 -110.32 287.66 C-108.24 281.7 -106.08 275.77 -103.89 269.85 C-101.55 263.54 -99.28 257.21 -97.07 250.85 C-93.86 241.58 -90.48 232.38 -87.09 223.18 C-84.31 215.63 -81.57 208.08 -78.95 200.47 C-75.75 191.21 -72.32 182.03 -68.89 172.85 C-64.87 162.1 -60.92 151.34 -57.2 140.48 C-55.06 134.26 -52.86 128.06 -50.6 121.89 C-50.26 120.94 -49.91 120 -49.56 119.03 C-48.84 117.06 -48.12 115.08 -47.4 113.11 C-44.67 105.62 -41.94 98.13 -39.21 90.64 C-38.53 88.77 -37.85 86.9 -37.17 85.03 C-33.27 74.33 -29.41 63.62 -25.63 52.88 C-23.89 47.94 -22.12 43.02 -20.32 38.1 C-19.99 37.18 -19.65 36.25 -19.31 35.3 C-17.01 29 -14.65 22.73 -12.27 16.47 C-10.59 11.99 -9.14 7.49 -7.87 2.88 C-6.63 -1.04 -3.68 0.02 0 0 Z " fill="#000405" transform="translate(529.323974609375,298.8388671875)"/>
</svg>
