<?xml version="1.0" encoding="UTF-8"?>
<!-- Generator: visioncortex VTracer 0.6.3 -->
<svg version="1.1" xmlns="http://www.w3.org/2000/svg" width="1280" height="825">
<path d="M0 0 C422.4 0 844.8 0 1280 0 C1280 272.25 1280 544.5 1280 825 C857.6 825 435.2 825 0 825 C0 552.75 0 280.5 0 0 Z " fill="#FBFCFE" transform="translate(0,0)"/>
<path d="M0 0 C5.18 2.87 8.12 6.08 11.04 11.2 C11.93 12.73 11.93 12.73 12.84 14.29 C16.17 21.12 16.66 29.21 14.23 36.4 C10.08 45.36 4.35 51.39 -4.61 55.55 C-8.24 56.78 -11.91 57.09 -15.71 57.27 C-16.3 59.21 -16.3 59.21 -16.71 61.27 C-16.38 61.6 -16.05 61.93 -15.71 62.27 C-15.76 64.02 -15.76 64.02 -16.02 66.39 C-16.17 67.77 -16.17 67.77 -16.32 69.17 C-16.59 71.26 -16.87 73.34 -17.19 75.42 C-18.56 84.53 -19.07 93.5 -19.28 102.7 C-19.72 117.66 -19.72 117.66 -23.19 122.2 C-24.95 124.59 -25.51 126.53 -26.21 129.41 C-26.58 130.89 -26.58 130.89 -26.96 132.4 C-27.33 133.94 -27.33 133.94 -27.71 135.52 C-30.51 146.98 -30.51 146.98 -32.3 151.49 C-33.84 155.41 -34.65 159.3 -35.34 163.45 C-35.46 164.19 -35.59 164.92 -35.72 165.68 C-36.47 170.23 -36.94 174.72 -37.21 179.33 C-37.53 184.58 -38.61 188.46 -40.71 193.27 C-40.96 194.26 -40.96 194.26 -41.21 195.27 C-41.71 197.27 -41.71 197.27 -43.27 200.58 C-47.52 211.96 -44.46 225.14 -40.71 236.27 C-39.58 238.66 -38.36 240.87 -36.95 243.11 C-33.23 249.57 -32.24 256.31 -32.02 263.64 C-31.99 264.41 -31.96 265.19 -31.92 265.98 C-31.82 268.41 -31.76 270.84 -31.71 273.27 C-31.68 274.58 -31.68 274.58 -31.64 275.91 C-31.54 282.65 -32.17 289.11 -33.15 295.77 C-33.28 296.74 -33.42 297.71 -33.56 298.72 C-34.56 305.82 -34.56 305.82 -35.71 309.27 C-35.98 314.04 -35.74 317.89 -33.71 322.27 C-31.95 323.48 -31.95 323.48 -29.71 324.27 C-24.52 327.14 -20.78 330.65 -18.71 336.27 C-18.54 338.96 -18.61 341.56 -18.71 344.27 C-17.75 344.73 -16.8 345.19 -15.81 345.66 C2.88 354.77 20.08 364.41 33.8 380.39 C36.33 382.3 37.81 382.77 40.82 383.54 C47.41 385.34 52.48 388.97 58.04 392.83 C59.09 393.55 60.15 394.26 61.23 395 C64.26 397.08 67.28 399.17 70.29 401.27 C71.05 401.79 71.81 402.32 72.59 402.86 C80.06 408.05 87.27 413.49 94.29 419.27 C95.17 419.98 96.05 420.7 96.96 421.45 C98.81 422.95 100.66 424.47 102.5 425.98 C104.35 427.5 106.21 429.01 108.08 430.52 C112.7 434.26 117.21 438.06 121.6 442.08 C124.23 444.48 126.78 446.72 129.79 448.64 C132.29 450.27 132.29 450.27 134.29 453.27 C134.41 455.95 134.41 455.95 134.29 458.27 C141.21 462.75 141.21 462.75 149.1 464.17 C154.56 462.64 158.14 460.02 162.29 456.27 C165.53 454.89 167.91 455.42 171.29 456.27 C170.73 456.53 170.18 456.8 169.6 457.08 C168.84 457.47 168.08 457.86 167.29 458.27 C166.51 458.66 165.72 459.05 164.91 459.45 C161.48 461.83 158.46 464.67 156.29 468.27 C156.62 469.26 156.95 470.25 157.29 471.27 C161.12 471.35 164.96 471.41 168.79 471.45 C169.87 471.48 170.94 471.5 172.05 471.53 C180.86 471.61 186.67 469.88 194.35 465.52 C197.75 463.79 199.31 463.27 203.23 463.14 C206.96 464.51 207.46 465.87 209.29 469.27 C197.9 481.26 186.98 491.58 172.6 499.8 C166.77 503.15 161.83 507 156.84 511.48 C153.81 514.17 151.16 516.03 147.29 517.27 C143.45 514.1 141.58 511.03 139.48 506.52 C136.57 500.44 132.93 496.08 128.29 491.27 C127.12 489.92 125.95 488.56 124.79 487.2 C123.63 485.89 122.46 484.57 121.29 483.27 C120.64 482.53 119.99 481.79 119.32 481.02 C114.97 476.33 112.76 474.95 106.29 474.27 C101.36 471.73 97.1 468.12 92.78 464.68 C87.7 460.64 82.73 457.28 76.91 454.39 C69.09 450.47 62.69 445.24 56 439.66 C51.92 436.32 47.59 433.31 43.29 430.27 C42.46 429.66 41.63 429.06 40.78 428.43 C30.93 421.33 22.1 416.66 10.04 414.7 C-2.43 412.44 -13.79 409.57 -25.05 403.59 C-29.54 401.36 -34.23 399.61 -38.9 397.79 C-41.67 396.71 -44.35 395.52 -47.04 394.27 C-52.66 391.75 -58.5 390.18 -64.43 388.55 C-68.42 387.41 -72.01 386.25 -75.59 384.11 C-79.44 381.84 -82.4 381.49 -86.71 382.27 C-93.91 384.61 -100.5 388.15 -107.09 391.83 C-108.03 392.35 -108.98 392.87 -109.96 393.41 C-114.67 396.01 -119.37 398.64 -124.06 401.29 C-132.69 406.14 -141.16 410.5 -150.43 414 C-160.11 417.74 -168.55 423.08 -176.96 429.08 C-178.49 430.16 -180.03 431.25 -181.56 432.33 C-183.82 433.93 -186.08 435.53 -188.33 437.14 C-193 440.39 -197.89 442.89 -202.99 445.39 C-216.92 452.25 -229.72 460.39 -241.42 470.64 C-246.25 474.8 -249.32 476.96 -255.76 477.14 C-258.65 477.33 -260.36 478.64 -262.71 480.27 C-264.04 480.9 -265.37 481.53 -266.71 482.14 C-272.3 484.94 -275.39 488.7 -278.65 493.95 C-281.24 498.01 -283.01 499.01 -287.71 500.27 C-289.48 502.74 -289.48 502.74 -290.71 505.27 C-291.37 505.6 -292.03 505.93 -292.71 506.27 C-292.94 506.86 -293.16 507.46 -293.4 508.08 C-295.37 511.37 -298.16 512.91 -301.71 514.27 C-304.09 514.02 -304.09 514.02 -306.71 513.27 C-311.79 512.7 -315.65 513.01 -320.27 515.27 C-326.04 518.08 -330.19 518.08 -336.4 516.08 C-339.91 514.15 -342.06 512.26 -344.71 509.27 C-345.18 508.79 -345.65 508.31 -346.13 507.82 C-348.44 505.34 -349.65 503.54 -350.34 500.2 C-349.48 496.16 -347.94 494.81 -344.71 492.27 C-340 490 -335.77 488.73 -330.59 487.83 C-318.19 486.04 -318.19 486.04 -307.71 480.27 C-307.63 479.63 -307.55 478.99 -307.46 478.33 C-306.71 476.27 -306.71 476.27 -303.65 474.52 C-302.68 474.1 -301.71 473.69 -300.71 473.27 C-300.86 472.67 -301 472.08 -301.15 471.47 C-302.12 467.34 -302.99 463.54 -302.71 459.27 C-301.72 459.6 -300.73 459.93 -299.71 460.27 C-299.4 461.4 -299.09 462.53 -298.77 463.7 C-298.1 467.33 -298.1 467.33 -295.59 468.7 C-294.97 468.89 -294.35 469.07 -293.71 469.27 C-292.81 467.81 -292.81 467.81 -291.9 466.33 C-289.71 463.27 -289.71 463.27 -286.71 462.27 C-283.52 463.2 -283.52 463.2 -280.71 464.27 C-280.75 463.3 -280.79 462.33 -280.84 461.33 C-280.08 456.28 -276.52 454.03 -272.77 450.91 C-269.93 448.52 -267.38 445.92 -264.81 443.25 C-247.17 424.92 -225.14 412.54 -202.35 401.66 C-199.71 400.27 -197.71 398.72 -195.46 396.77 C-192.17 394.09 -189.72 392.83 -185.59 391.95 C-180.11 390.57 -178.37 387.68 -175.48 383.02 C-172.44 378.29 -168.56 374.34 -164.71 370.27 C-163.66 369.14 -163.66 369.14 -162.59 367.99 C-157.84 363.04 -152.77 358.82 -147.23 354.8 C-144.66 352.91 -142.65 351.18 -140.71 348.64 C-138.26 345.73 -136.1 344.95 -132.59 343.58 C-128.24 341.61 -128.24 341.61 -125.48 337.94 C-124.68 334 -124.69 330.2 -124.77 326.2 C-124.7 321.45 -123.88 317.51 -121.71 313.27 C-119.52 311.64 -119.52 311.64 -116.71 310.27 C-115.22 309.21 -113.76 308.1 -112.34 306.95 C-111.63 306.4 -110.92 305.85 -110.19 305.28 C-108.4 303.3 -108.4 303.3 -108.9 300.42 C-109.17 299.38 -109.43 298.34 -109.71 297.27 C-109.92 296.25 -110.14 295.24 -110.36 294.2 C-110.6 293.19 -110.84 292.18 -111.09 291.14 C-111.32 290.13 -111.56 289.11 -111.8 288.07 C-112.73 285.22 -113.89 283.6 -115.71 281.27 C-116.45 279.19 -116.45 279.19 -117.02 277.02 C-118.39 272.56 -120.55 269.46 -123.5 265.89 C-124.71 264.27 -124.71 264.27 -124.71 262.27 C-127.57 262.38 -127.57 262.38 -130.71 263.27 C-132.82 265.63 -132.82 265.63 -134.71 268.27 C-135.5 268.67 -136.28 269.07 -137.09 269.48 C-140.54 271.83 -141.85 274.79 -143.59 278.45 C-148.69 288.55 -155.03 295.85 -164.94 301.55 C-173.23 306.45 -178.54 314.13 -181.71 323.2 C-183.13 328.97 -183.95 335.43 -182.71 341.27 C-180.26 343.05 -180.26 343.05 -177.71 344.27 C-177.71 344.93 -177.71 345.59 -177.71 346.27 C-177.05 346.6 -176.39 346.93 -175.71 347.27 C-176.37 347.93 -177.03 348.59 -177.71 349.27 C-181.95 349.1 -184.3 348.54 -187.84 346.14 C-190.5 344.07 -190.5 344.07 -193.27 344.08 C-196.46 345.63 -197.62 347.69 -199.51 350.61 C-200.96 352.61 -202.37 353.49 -204.71 354.27 C-205.04 351.96 -205.37 349.65 -205.71 347.27 C-208.51 347.7 -211.27 348.15 -214.01 348.88 C-214.8 349.09 -215.59 349.3 -216.4 349.52 C-217.14 349.73 -217.89 349.94 -218.66 350.16 C-220.71 350.27 -220.71 350.27 -222.48 348.81 C-222.89 348.3 -223.29 347.79 -223.71 347.27 C-223.15 347 -222.58 346.73 -222 346.46 C-220.9 345.93 -220.9 345.93 -219.77 345.39 C-219.04 345.04 -218.31 344.69 -217.56 344.34 C-215.55 343.4 -215.55 343.4 -214.71 341.27 C-215.38 341.43 -216.05 341.59 -216.74 341.76 C-220.29 342.36 -223.67 342.4 -227.27 342.39 C-228.57 342.39 -229.87 342.4 -231.21 342.4 C-233.95 342.29 -236.13 342.09 -238.71 341.27 C-238.71 340.61 -238.71 339.95 -238.71 339.27 C-238.16 339.18 -237.61 339.09 -237.05 338.99 C-217.44 335.78 -217.44 335.78 -202.71 323.27 C-202.05 323.27 -201.39 323.27 -200.71 323.27 C-200.37 322.46 -200.37 322.46 -200.02 321.64 C-198.71 319.27 -198.71 319.27 -196.46 316.89 C-193.86 313.87 -192.56 310.71 -191.09 307.02 C-185.78 293.93 -177.96 282.46 -168.92 271.68 C-164.74 266.58 -161.99 261.31 -159.23 255.35 C-157.53 251.9 -155.49 249.14 -153.09 246.16 C-151.58 244.09 -150.55 242.02 -149.46 239.7 C-147.22 235.04 -144.59 230.72 -141.77 226.39 C-141.37 225.75 -140.96 225.11 -140.54 224.44 C-137.02 219.13 -133.17 216.21 -127.15 213.89 C-122.03 211.47 -119.57 208.61 -117.59 203.2 C-117.41 200.1 -117.41 200.1 -119.84 197.89 C-120.78 197.02 -121.73 196.16 -122.71 195.27 C-126.96 189.31 -129.19 184.76 -128.71 177.27 C-126.98 169.09 -122.89 162.45 -116.21 157.39 C-110.38 153.61 -104.59 152.35 -97.71 153.27 C-91.64 155.1 -87.37 159.12 -82.89 163.46 C-80.79 165.4 -80.79 165.4 -78.05 166.29 C-75.71 167.27 -75.71 167.27 -74.02 170.83 C-73.59 171.96 -73.16 173.1 -72.71 174.27 C-72.05 174.6 -71.39 174.93 -70.71 175.27 C-70.71 175.93 -70.71 176.59 -70.71 177.27 C-68.9 175.54 -67.33 173.79 -65.77 171.83 C-63.71 169.27 -63.71 169.27 -61.78 167.69 C-58.77 164.16 -57.86 160.3 -56.59 155.89 C-56.08 154.22 -55.58 152.54 -55.08 150.87 C-54.85 150.07 -54.61 149.27 -54.37 148.45 C-53.82 146.63 -53.2 144.83 -52.55 143.04 C-51.64 140.04 -51.44 137.45 -51.34 134.33 C-51.03 129.8 -50.34 127.11 -47.75 123.29 C-45.76 119.41 -45.26 115.02 -44.42 110.77 C-43.21 104.78 -41.79 99.04 -38.77 93.7 C-34.26 85.16 -30.88 71.83 -32.71 62.27 C-34.1 58.12 -35.84 54.21 -37.71 50.27 C-42.55 39.99 -46.04 29.43 -42.8 18.07 C-40.43 11.86 -38.2 8.01 -32.71 4.27 C-32.38 3.61 -32.05 2.95 -31.71 2.27 C-20.76 -3.26 -11.38 -4.79 0 0 Z " fill="#000002" transform="translate(720.7109375,83.734375)"/>
<path d="M0 0 C18.66 -0.07 37.33 -0.12 55.99 -0.16 C64.66 -0.17 73.33 -0.19 81.99 -0.23 C89.55 -0.26 97.11 -0.28 104.67 -0.28 C108.67 -0.29 112.67 -0.3 116.67 -0.32 C120.44 -0.34 124.21 -0.34 127.99 -0.34 C130.01 -0.34 132.03 -0.36 134.06 -0.37 C145.34 -0.34 157.94 0.39 167.12 7.69 C173.58 15.65 173.62 23.02 173.6 32.94 C173.61 34.39 173.62 35.84 173.63 37.28 C173.64 40.31 173.64 43.34 173.63 46.36 C173.62 50.22 173.65 54.08 173.7 57.94 C173.73 60.93 173.73 63.92 173.73 66.91 C173.73 68.33 173.74 69.75 173.76 71.18 C173.85 78.87 173.84 84.63 168.56 90.55 C152.17 105.78 121.73 101.15 101.27 101.13 C98.63 101.13 95.98 101.13 93.34 101.14 C87.83 101.14 82.32 101.14 76.81 101.13 C70.46 101.12 64.12 101.13 57.77 101.13 C51.62 101.14 45.47 101.14 39.32 101.13 C36.72 101.13 34.12 101.13 31.52 101.14 C27.89 101.14 24.27 101.13 20.64 101.13 C19.57 101.13 18.51 101.13 17.41 101.14 C6.05 101.1 6.05 101.1 1 100 C-2.14 96.78 -1.27 91.64 -1.24 87.38 C-1.24 86.51 -1.25 85.64 -1.25 84.75 C-1.25 81.88 -1.24 79 -1.23 76.13 C-1.23 74.14 -1.23 72.14 -1.23 70.14 C-1.23 65.95 -1.22 61.76 -1.21 57.58 C-1.19 52.21 -1.18 46.85 -1.19 41.49 C-1.19 37.36 -1.18 33.24 -1.17 29.11 C-1.17 27.13 -1.17 25.16 -1.17 23.18 C-1.16 20.41 -1.16 17.65 -1.15 14.88 C-1.15 14.07 -1.15 13.25 -1.15 12.41 C-1.14 11.27 -1.14 11.27 -1.13 10.11 C-1.13 9.46 -1.13 8.81 -1.13 8.13 C-0.96 5.38 -0.49 2.71 0 0 Z " fill="#000002" transform="translate(681,650)"/>
<path d="M0 0 C1.17 -0.01 2.33 -0.02 3.53 -0.03 C7.36 -0.05 11.18 -0.06 15.01 -0.06 C17.01 -0.07 19.01 -0.08 21.01 -0.09 C27.3 -0.11 33.59 -0.12 39.88 -0.12 C46.33 -0.12 52.77 -0.15 59.21 -0.19 C64.78 -0.23 70.36 -0.24 75.93 -0.25 C79.24 -0.25 82.55 -0.26 85.86 -0.28 C120.38 -0.54 120.38 -0.54 130.81 9.31 C136.06 17.09 136.53 25.02 136.43 34.15 C136.44 35.45 136.44 36.74 136.44 38.07 C136.44 40.79 136.43 43.5 136.4 46.22 C136.37 49.68 136.37 53.13 136.39 56.59 C136.41 59.92 136.39 63.26 136.37 66.59 C136.38 67.82 136.38 69.04 136.39 70.31 C136.28 78.47 135.49 86.44 129.62 92.6 C128.88 93.04 128.13 93.48 127.37 93.93 C126.26 94.63 126.26 94.63 125.12 95.35 C122.52 96.43 120.6 96.49 117.81 96.31 C118.14 96.97 118.47 97.63 118.81 98.31 C109.37 100.93 100.12 101.46 90.36 101.45 C89.37 101.46 88.38 101.46 87.36 101.46 C84.11 101.47 80.86 101.47 77.61 101.47 C75.33 101.48 73.04 101.48 70.76 101.48 C65.99 101.49 61.22 101.49 56.44 101.49 C50.36 101.49 44.28 101.51 38.2 101.52 C33.49 101.53 28.78 101.54 24.07 101.54 C21.83 101.54 19.59 101.54 17.35 101.55 C-15.32 101.65 -15.32 101.65 -28.19 95.31 C-28.86 95.01 -29.53 94.71 -30.22 94.4 C-35.21 91.95 -36.9 89.16 -39.19 84.31 C-40.26 81.11 -40.34 78.78 -40.37 75.42 C-40.38 74.21 -40.4 72.99 -40.41 71.74 C-40.42 70.43 -40.42 69.12 -40.43 67.77 C-40.44 67.1 -40.44 66.43 -40.44 65.74 C-40.47 62.19 -40.48 58.64 -40.49 55.09 C-40.5 51.44 -40.53 47.79 -40.57 44.14 C-40.6 41.32 -40.61 38.5 -40.61 35.68 C-40.62 33.69 -40.65 31.69 -40.67 29.7 C-40.66 22.48 -40.18 16.5 -36.19 10.31 C-33.98 8.19 -33.98 8.19 -31.69 6.87 C-30.94 6.42 -30.19 5.96 -29.41 5.5 C-28.68 5.1 -27.95 4.71 -27.19 4.31 C-26.59 3.97 -25.99 3.64 -25.37 3.3 C-17.6 -0.26 -8.37 0.01 0 0 Z " fill="#000002" transform="translate(279.194091796875,649.693603515625)"/>
<path d="M0 0 C0.94 -0.01 1.88 -0.01 2.84 -0.02 C3.88 -0.02 4.92 -0.02 5.99 -0.02 C7.08 -0.03 8.17 -0.03 9.29 -0.04 C12.92 -0.05 16.54 -0.06 20.17 -0.06 C22.7 -0.07 25.22 -0.07 27.75 -0.08 C32.39 -0.09 37.03 -0.1 41.67 -0.1 C48.44 -0.1 55.22 -0.12 62 -0.15 C67.9 -0.17 73.8 -0.18 79.7 -0.18 C82.19 -0.19 84.68 -0.19 87.17 -0.21 C140.53 -0.47 140.53 -0.47 157.66 15.14 C157.66 15.8 157.66 16.46 157.66 17.14 C158.32 17.14 158.98 17.14 159.66 17.14 C163.25 23.57 165.63 29.12 163.84 36.58 C161.62 42.57 156.79 45.67 151.66 49.14 C151.08 49.55 150.5 49.96 149.9 50.39 C142.63 55.07 133.19 57.35 124.66 58.14 C124.66 59.13 124.66 60.12 124.66 61.14 C126.58 62.81 128.47 64.29 130.53 65.77 C135.67 69.58 140.47 73.58 145.18 77.91 C149.53 81.83 154.11 85.45 158.66 89.14 C159.99 90.24 161.33 91.34 162.66 92.45 C163.17 92.88 163.69 93.31 164.22 93.75 C165.93 95.4 167.25 97.23 168.66 99.14 C162.82 99.26 156.99 99.36 151.15 99.42 C149.17 99.44 147.19 99.47 145.2 99.52 C142.34 99.58 139.48 99.61 136.62 99.63 C135.31 99.67 135.31 99.67 133.97 99.71 C124.91 99.71 119.57 95.31 113.16 89.27 C112.21 88.39 111.27 87.51 110.3 86.6 C108.99 85.38 108.99 85.38 107.66 84.14 C105.81 82.52 103.95 80.93 102.05 79.37 C100.1 77.55 98.54 75.81 96.87 73.76 C90.62 66.5 85.31 62.43 75.55 61.65 C69.93 61.48 64.34 61.59 58.72 61.77 C56.38 61.79 54.04 61.8 51.7 61.81 C46.01 61.84 40.35 61.99 34.66 62.14 C34.66 74.02 34.66 85.9 34.66 98.14 C29.28 98.16 23.9 98.18 18.53 98.2 C16.7 98.2 14.87 98.21 13.04 98.22 C10.42 98.23 7.79 98.23 5.16 98.24 C4.34 98.24 3.52 98.25 2.68 98.25 C-3.12 98.25 -3.12 98.25 -5.34 97.14 C-5.37 84.64 -5.39 72.14 -5.4 59.64 C-5.4 53.84 -5.41 48.03 -5.42 42.23 C-5.43 36.64 -5.44 31.04 -5.44 25.44 C-5.44 23.3 -5.45 21.16 -5.45 19.02 C-5.46 16.04 -5.46 13.05 -5.46 10.07 C-5.46 9.17 -5.47 8.28 -5.47 7.36 C-5.46 0.02 -5.46 0.02 0 0 Z " fill="#000002" transform="translate(472.34478759765625,650.8595581054688)"/>
<path d="M0 0 C2.7 -0.02 5.36 0.03 8.06 0.12 C9.23 0.08 10.39 0.03 11.59 -0.02 C17.32 1.87 19.53 6.64 22.69 11.56 C24.1 13.68 25.51 15.8 26.93 17.91 C27.98 19.49 27.98 19.49 29.04 21.11 C31.86 25.32 34.82 29.41 37.81 33.5 C41.99 39.24 46.11 45.01 50.19 50.81 C55.31 58.1 60.54 65.29 65.83 72.45 C68.93 76.66 72 80.89 75.06 85.12 C75.73 86.04 76.39 86.95 77.07 87.88 C77.71 88.77 78.35 89.65 79 90.56 C79.57 91.34 80.13 92.13 80.71 92.93 C82.01 95.04 82.63 96.7 83.06 99.12 C79.37 100.36 75.96 100.25 72.11 100.22 C71.34 100.22 70.57 100.22 69.77 100.22 C67.31 100.21 64.84 100.2 62.38 100.19 C60.7 100.18 59.03 100.18 57.36 100.17 C53.26 100.16 49.16 100.15 45.06 100.12 C45.06 99.47 45.06 98.81 45.06 98.12 C44.47 97.9 43.87 97.67 43.25 97.43 C40.47 95.77 39.57 94.06 38 91.25 C36.56 88.68 35.17 86.27 33.38 83.93 C32.06 82.12 32.06 82.12 32.06 80.12 C4.67 80.46 -22.72 80.78 -50.94 81.12 C-50.94 82.44 -50.94 83.76 -50.94 85.12 C-51.6 85.12 -52.26 85.12 -52.94 85.12 C-53.08 85.95 -53.08 85.95 -53.22 86.8 C-54.13 89.74 -55.6 91.81 -57.38 94.31 C-58.3 95.63 -58.3 95.63 -59.25 96.98 C-60.94 99.12 -60.94 99.12 -62.94 100.12 C-65.64 100.21 -68.31 100.24 -71.01 100.22 C-72.2 100.22 -72.2 100.22 -73.42 100.22 C-75.97 100.21 -78.52 100.2 -81.06 100.19 C-82.79 100.18 -84.51 100.18 -86.24 100.17 C-90.47 100.16 -94.7 100.15 -98.94 100.12 C-99.56 98.31 -99.56 98.31 -99.94 96.12 C-98.44 93.87 -96.94 91.92 -95.19 89.88 C-91 84.78 -87.07 79.59 -83.38 74.12 C-82.46 72.77 -81.54 71.42 -80.62 70.07 C-80.18 69.41 -79.73 68.75 -79.27 68.07 C-75.98 63.27 -72.56 58.55 -69.16 53.83 C-67.95 52.14 -66.75 50.46 -65.55 48.77 C-62.01 43.81 -58.46 38.84 -54.88 33.91 C-54.35 33.18 -53.82 32.45 -53.27 31.69 C-52.17 30.19 -51.06 28.68 -49.95 27.19 C-46.99 23.18 -44.36 19.18 -41.99 14.79 C-35.02 2.29 -35.02 2.29 -29.51 0.21 C-23.89 -0.84 -18.38 -0.55 -12.71 -0.08 C-8.47 0.23 -4.25 0.09 0 0 Z " fill="#000002" transform="translate(980.9375,649.875)"/>
<path d="M0 0 C5.07 -0.08 10.13 -0.1 15.2 -0.07 C16.92 -0.06 18.64 -0.08 20.36 -0.11 C36.45 -0.36 36.45 -0.36 43.46 5.38 C45 6.89 46.52 8.43 48 10 C49.23 11.01 50.48 12.01 51.75 12.97 C52.29 13.39 52.83 13.81 53.39 14.24 C53.92 14.66 54.45 15.07 55 15.5 C59.23 18.8 63.42 22.15 67.56 25.56 C72.05 29.26 76.62 32.81 81.24 36.34 C85.32 39.46 89.34 42.65 93.34 45.88 C97.12 48.89 100.93 51.87 104.74 54.84 C107.58 57.07 110.4 59.31 113.16 61.63 C114.12 62.43 115.08 63.24 116.06 64.06 C116.9 64.78 117.74 65.49 118.6 66.22 C121 68 123.18 69.03 126 70 C125.67 69.01 125.34 68.02 125 67 C124.9 65.09 124.86 63.18 124.85 61.26 C124.85 60.08 124.84 58.91 124.84 57.69 C124.83 56.42 124.83 55.14 124.83 53.83 C124.83 51.86 124.83 51.86 124.82 49.86 C124.82 47.08 124.81 44.3 124.81 41.52 C124.81 37.98 124.8 34.43 124.78 30.89 C124.77 27.49 124.77 24.1 124.77 20.7 C124.76 19.44 124.76 18.17 124.75 16.86 C124.76 10.87 124.89 5.65 127 0 C131.52 -0.07 136.04 -0.13 140.56 -0.16 C142.1 -0.18 143.64 -0.2 145.18 -0.23 C147.39 -0.26 149.6 -0.28 151.8 -0.29 C152.84 -0.32 152.84 -0.32 153.89 -0.34 C155.84 -0.34 155.84 -0.34 159 0 C161.03 3.04 161.25 3.6 161.24 7.01 C161.24 8.22 161.24 8.22 161.25 9.47 C161.24 10.8 161.24 10.8 161.23 12.15 C161.23 13.09 161.23 14.03 161.23 14.99 C161.23 18.09 161.21 21.19 161.2 24.29 C161.19 26.44 161.19 28.59 161.19 30.74 C161.18 36.39 161.16 42.05 161.14 47.71 C161.12 53.48 161.11 59.25 161.1 65.02 C161.08 76.35 161.04 87.67 161 99 C155.04 100.6 148.95 100.31 142.81 100.38 C141.52 100.41 140.23 100.45 138.9 100.49 C130.89 100.56 125.45 99.87 119 95 C118.35 94.52 117.71 94.04 117.04 93.55 C115.09 92.04 113.2 90.47 111.31 88.88 C109.92 87.72 108.53 86.57 107.13 85.41 C106.44 84.84 105.75 84.27 105.04 83.68 C101.96 81.15 98.83 78.7 95.69 76.25 C90.67 72.33 85.74 68.34 80.82 64.3 C77.1 61.27 73.33 58.32 69.55 55.37 C64.92 51.75 60.36 48.04 55.81 44.31 C45.93 35.88 45.93 35.88 35 29 C35 52.1 35 75.2 35 99 C23.78 99 12.56 99 1 99 C-0.92 97.08 -0.12 94.21 -0.12 91.66 C-0.12 90.74 -0.12 89.83 -0.11 88.89 C-0.11 87.93 -0.11 86.98 -0.11 85.99 C-0.11 82.82 -0.11 79.64 -0.1 76.46 C-0.1 74.27 -0.09 72.07 -0.09 69.88 C-0.09 64.09 -0.08 58.29 -0.07 52.5 C-0.06 46.6 -0.05 40.69 -0.05 34.79 C-0.04 23.19 -0.02 11.6 0 0 Z " fill="#000002" transform="translate(1097,650)"/>
<path d="M0 0 C12.48 -0.07 24.96 -0.12 37.45 -0.16 C43.24 -0.17 49.04 -0.19 54.83 -0.23 C60.42 -0.26 66.01 -0.28 71.6 -0.28 C73.74 -0.29 75.87 -0.3 78.01 -0.32 C80.99 -0.34 83.98 -0.34 86.96 -0.34 C88.3 -0.36 88.3 -0.36 89.66 -0.37 C92.11 -0.36 92.11 -0.36 96 0 C98.31 3.46 98.25 4.76 98.24 8.83 C98.25 10.63 98.25 10.63 98.25 12.46 C98.24 14.4 98.24 14.4 98.23 16.38 C98.23 17.72 98.23 19.06 98.23 20.4 C98.23 23.2 98.22 26 98.21 28.81 C98.19 32.41 98.18 36 98.19 39.6 C98.19 42.37 98.18 45.13 98.17 47.89 C98.17 49.87 98.17 51.84 98.16 53.82 C98.16 55.01 98.15 56.2 98.15 57.43 C98.14 58.48 98.14 59.54 98.13 60.62 C98 63 98 63 97 64 C87.15 65.41 77.21 65.18 67.28 65.2 C65.88 65.21 65.88 65.21 64.44 65.21 C59.5 65.23 54.56 65.24 49.61 65.24 C44.5 65.25 39.39 65.27 34.29 65.3 C30.35 65.32 26.42 65.32 22.49 65.32 C20.6 65.33 18.72 65.33 16.83 65.35 C14.21 65.36 11.59 65.36 8.96 65.36 C7.79 65.37 7.79 65.37 6.6 65.38 C4.44 65.37 4.44 65.37 1 65 C-1.3 61.54 -1.25 60.25 -1.24 56.18 C-1.25 54.99 -1.25 53.79 -1.25 52.56 C-1.25 51.27 -1.24 49.98 -1.23 48.65 C-1.23 47.32 -1.23 45.98 -1.23 44.64 C-1.23 41.85 -1.22 39.05 -1.21 36.25 C-1.19 32.66 -1.18 29.07 -1.19 25.48 C-1.19 22.72 -1.18 19.96 -1.17 17.2 C-1.17 15.24 -1.17 13.27 -1.16 11.3 C-1.16 10.11 -1.15 8.91 -1.15 7.69 C-1.14 6.63 -1.14 5.58 -1.13 4.5 C-1 2 -1 2 0 0 Z " fill="#FBFCFE" transform="translate(718,668)"/>
<path d="M0 0 C1.2 -0.02 1.2 -0.02 2.43 -0.04 C5.06 -0.07 7.7 -0.08 10.34 -0.09 C12.18 -0.1 14.02 -0.11 15.86 -0.12 C19.71 -0.15 23.56 -0.16 27.42 -0.16 C32.35 -0.16 37.28 -0.22 42.21 -0.28 C46.01 -0.32 49.8 -0.33 53.6 -0.33 C55.42 -0.33 57.24 -0.35 59.06 -0.38 C61.6 -0.42 64.14 -0.41 66.69 -0.39 C67.81 -0.42 67.81 -0.42 68.95 -0.45 C71.99 -0.39 74.3 -0.03 76.72 1.87 C79.92 5.34 81.66 8.1 81.68 12.94 C81.7 13.96 81.72 14.99 81.74 16.04 C81.73 17.13 81.72 18.22 81.71 19.33 C81.71 20.47 81.72 21.6 81.72 22.77 C81.73 25.15 81.72 27.54 81.69 29.92 C81.66 33.57 81.69 37.22 81.73 40.87 C81.72 43.19 81.72 45.51 81.71 47.83 C81.72 49.47 81.72 49.47 81.74 51.14 C81.72 52.15 81.7 53.17 81.68 54.22 C81.68 55.11 81.68 56 81.67 56.92 C80.75 59.98 79.26 61.57 76.72 63.48 C73.52 65.2 70.24 65.14 66.7 65.08 C65.9 65.09 65.1 65.1 64.28 65.1 C61.64 65.12 59.01 65.1 56.38 65.08 C54.54 65.08 52.7 65.08 50.86 65.09 C47.02 65.09 43.17 65.08 39.32 65.05 C34.4 65.01 29.48 65.02 24.56 65.04 C20.76 65.05 16.97 65.04 13.18 65.03 C11.36 65.02 9.55 65.02 7.73 65.03 C5.19 65.03 2.65 65.01 0.11 64.99 C-0.63 64.99 -1.38 65 -2.14 65 C-7.25 64.91 -10.21 63.75 -14.09 60.45 C-16.06 57.6 -16.35 55.31 -16.37 51.89 C-16.38 50.54 -16.38 50.54 -16.4 49.16 C-16.39 48.2 -16.39 47.24 -16.39 46.24 C-16.4 44.75 -16.4 44.75 -16.41 43.22 C-16.41 41.11 -16.41 38.99 -16.41 36.88 C-16.4 33.66 -16.43 30.44 -16.45 27.22 C-16.46 25.17 -16.46 23.11 -16.45 21.06 C-16.46 20.1 -16.47 19.14 -16.48 18.16 C-16.44 12.5 -16 8.36 -13.09 3.45 C-8.95 0.18 -5.09 0 0 0 Z " fill="#FBFCFE" transform="translate(294.091552734375,667.54833984375)"/>
<path d="M0 0 C5.23 -0.02 10.47 -0.04 15.7 -0.05 C17.48 -0.06 19.26 -0.07 21.04 -0.08 C23.6 -0.09 26.15 -0.09 28.71 -0.1 C29.51 -0.1 30.31 -0.11 31.13 -0.11 C36.77 -0.11 36.77 -0.11 39 1 C39.07 11.34 39.12 21.69 39.16 32.03 C39.17 36.84 39.19 41.64 39.23 46.44 C39.26 51.08 39.28 55.71 39.28 60.35 C39.29 62.12 39.3 63.89 39.32 65.66 C39.34 68.13 39.34 70.61 39.34 73.09 C39.35 73.82 39.36 74.55 39.37 75.3 C39.35 79.73 38.68 82.46 36 86 C28.65 93.17 19.66 95.63 9.81 97.69 C8.87 97.9 7.93 98.11 6.97 98.33 C-7.65 101.47 -22.55 101.17 -37.42 101.2 C-38.92 101.21 -38.92 101.21 -40.45 101.21 C-45.72 101.23 -50.99 101.24 -56.25 101.24 C-61.69 101.25 -67.13 101.27 -72.58 101.3 C-76.77 101.32 -80.96 101.32 -85.15 101.32 C-87.16 101.33 -89.17 101.33 -91.18 101.35 C-93.97 101.36 -96.76 101.36 -99.55 101.36 C-100.38 101.37 -101.21 101.37 -102.07 101.38 C-104.36 101.37 -104.36 101.37 -108 101 C-110.32 97.52 -110.24 96.1 -110.19 92 C-110.18 90.95 -110.17 89.9 -110.17 88.81 C-110 86 -110 86 -109 83 C-107.91 82.99 -106.81 82.98 -105.69 82.98 C-95.36 82.9 -85.03 82.81 -74.71 82.71 C-69.4 82.66 -64.09 82.62 -58.78 82.58 C-53.65 82.54 -48.52 82.49 -43.39 82.44 C-41.44 82.42 -39.49 82.41 -37.54 82.4 C-34.79 82.38 -32.05 82.35 -29.31 82.32 C-28.51 82.32 -27.71 82.31 -26.89 82.31 C-18.28 82.19 -8.38 81.38 -2 75 C-1.67 71.9 -1.67 71.9 -1.7 68.21 C-1.68 67.16 -1.68 67.16 -1.67 66.1 C-1.65 63.78 -1.63 61.47 -1.62 59.16 C-1.6 57.56 -1.59 55.95 -1.57 54.35 C-1.52 50.12 -1.49 45.89 -1.46 41.66 C-1.41 34.9 -1.34 28.13 -1.27 21.36 C-1.25 19 -1.23 16.63 -1.21 14.27 C-1.2 12.82 -1.19 11.37 -1.17 9.92 C-1.16 8.02 -1.16 8.02 -1.14 6.08 C-1 3 -1 3 0 0 Z " fill="#000002" transform="translate(152,650)"/>
<path d="M0 0 C1.24 0.01 2.48 0.02 3.75 0.03 C5.11 0.05 6.47 0.08 7.83 0.1 C9.23 0.12 10.63 0.14 12.03 0.16 C14.97 0.19 17.91 0.24 20.85 0.29 C24.58 0.36 28.31 0.4 32.04 0.44 C34.94 0.47 37.84 0.52 40.73 0.57 C42.11 0.59 43.48 0.61 44.86 0.62 C55.52 0.73 66.89 1 75.99 7.18 C78.99 10.35 80.77 12.77 80.99 17.18 C79.89 21.72 77.89 23.71 73.99 26.18 C62.89 31.09 52.62 31.33 40.65 31.28 C39.27 31.28 37.89 31.28 36.51 31.28 C32.91 31.27 29.3 31.26 25.7 31.25 C22.01 31.24 18.33 31.24 14.64 31.23 C7.42 31.22 0.21 31.2 -7.01 31.18 C-9.26 26.68 -8.55 20.64 -8.76 15.68 C-8.83 14.42 -8.9 13.16 -8.97 11.86 C-9.02 10.66 -9.07 9.45 -9.12 8.21 C-9.17 7.11 -9.22 6 -9.27 4.86 C-9.14 3.53 -9.14 3.53 -9.01 2.18 C-5.5 -0.16 -4.15 -0.05 0 0 Z " fill="#FBFCFE" transform="translate(515.00927734375,665.817138671875)"/>
<path d="M0 0 C3.63 1.21 4 2.13 5.97 5.31 C6.53 6.22 7.1 7.12 7.68 8.05 C8.58 9.51 8.58 9.51 9.5 11 C10.75 13.01 12.01 15.01 13.27 17.02 C13.89 18.02 14.52 19.03 15.16 20.06 C17.81 24.3 20.53 28.5 23.25 32.69 C23.7 33.39 24.16 34.09 24.62 34.81 C26.4 37.55 28.19 40.28 30 43 C29.67 43.99 29.34 44.98 29 46 C10.85 45.67 -7.3 45.34 -26 45 C-26 40.95 -25.82 40.23 -23.76 37.05 C-23.28 36.29 -22.79 35.54 -22.29 34.75 C-21.76 33.95 -21.23 33.14 -20.69 32.31 C-20.15 31.48 -19.61 30.64 -19.06 29.78 C-17.38 27.18 -15.69 24.59 -14 22 C-12.45 19.61 -10.91 17.23 -9.37 14.84 C-8.44 13.4 -7.5 11.96 -6.57 10.52 C-4.31 7.05 -2.1 3.57 0 0 Z " fill="#FBFCFE" transform="translate(971,669)"/>
</svg>
